<svg width="287" height="66" viewBox="0 0 287 66" fill="none" xmlns="http://www.w3.org/2000/svg">
<path d="M30.4107 26.1155L42.1071 12H21.0535L9.74698 26.1155H30.4107Z" fill="#E74C3C"/>
<path d="M9.35719 16.2346V21.4107L13.6459 16.2346H9.35719Z" fill="#E74C3C"/>
<path d="M14.0357 40.231H17.1547V43.0541H14.0357V40.231Z" fill="#E74C3C"/>
<path d="M42.1072 37.408H48.3453V48.7004H42.1072V37.408Z" fill="#E74C3C"/>
<path d="M57.7024 48.7004V28.9387H32.75V48.7004H38.9881V35.9965C38.9881 35.2169 39.6864 34.5849 40.5476 34.5849H49.9048C50.766 34.5849 51.4643 35.2169 51.4643 35.9965V48.7004H57.7024Z" fill="#E74C3C"/>
<path d="M56.1429 26.1156L45.2262 12.9415L34.3095 26.1156H56.1429Z" fill="#E74C3C"/>
<path d="M29.631 28.9387H7.79764V48.7004H29.631V28.9387ZM26.5119 44.4658C26.5119 45.2453 25.8136 45.8773 24.9524 45.8773H12.4762C11.615 45.8773 10.9167 45.2453 10.9167 44.4658V33.1733C10.9167 32.3938 11.615 31.7618 12.4762 31.7618H24.9524C25.8136 31.7618 26.5119 32.3938 26.5119 33.1733V44.4658Z" fill="#E74C3C"/>
<path d="M14.0357 34.5849H17.1547V37.408H14.0357V34.5849Z" fill="#E74C3C"/>
<path d="M63.9405 51.5235H1.55952C0.698283 51.5235 0 52.1555 0 52.935C0 53.7145 0.698283 54.3466 1.55952 54.3466H63.9405C64.8017 54.3466 65.5 53.7145 65.5 52.935C65.5 52.1555 64.8017 51.5235 63.9405 51.5235Z" fill="#E74C3C"/>
<path d="M20.2739 40.231H23.3929V43.0541H20.2739V40.231Z" fill="#E74C3C"/>
<path d="M20.2739 34.5849H23.3929V37.408H20.2739V34.5849Z" fill="#E74C3C"/>
<path d="M95.064 29.336C95.064 32.12 94.104 34.44 92.184 36.296C90.296 38.12 87.4 39.032 83.496 39.032H77.064V53H72.696V19.544H83.496C87.272 19.544 90.136 20.456 92.088 22.28C94.072 24.104 95.064 26.456 95.064 29.336ZM83.496 35.432C85.928 35.432 87.72 34.904 88.872 33.848C90.024 32.792 90.6 31.288 90.6 29.336C90.6 25.208 88.232 23.144 83.496 23.144H77.064V35.432H83.496ZM104.861 30.968C105.629 29.464 106.717 28.296 108.125 27.464C109.565 26.632 111.309 26.216 113.357 26.216V30.728H112.205C107.309 30.728 104.861 33.384 104.861 38.696V53H100.493V26.696H104.861V30.968ZM129.871 53.432C127.407 53.432 125.167 52.872 123.151 51.752C121.167 50.632 119.599 49.048 118.447 47C117.327 44.92 116.767 42.52 116.767 39.8C116.767 37.112 117.343 34.744 118.495 32.696C119.679 30.616 121.279 29.032 123.295 27.944C125.311 26.824 127.567 26.264 130.063 26.264C132.559 26.264 134.815 26.824 136.831 27.944C138.847 29.032 140.431 30.6 141.583 32.648C142.767 34.696 143.359 37.08 143.359 39.8C143.359 42.52 142.751 44.92 141.535 47C140.351 49.048 138.735 50.632 136.687 51.752C134.639 52.872 132.367 53.432 129.871 53.432ZM129.871 49.592C131.439 49.592 132.911 49.224 134.287 48.488C135.663 47.752 136.767 46.648 137.599 45.176C138.463 43.704 138.895 41.912 138.895 39.8C138.895 37.688 138.479 35.896 137.647 34.424C136.815 32.952 135.727 31.864 134.383 31.16C133.039 30.424 131.583 30.056 130.015 30.056C128.415 30.056 126.943 30.424 125.599 31.16C124.287 31.864 123.231 32.952 122.431 34.424C121.631 35.896 121.231 37.688 121.231 39.8C121.231 41.944 121.615 43.752 122.383 45.224C123.183 46.696 124.239 47.8 125.551 48.536C126.863 49.24 128.303 49.592 129.871 49.592ZM153.47 31.544C154.334 30.04 155.614 28.792 157.31 27.8C159.038 26.776 161.038 26.264 163.31 26.264C165.646 26.264 167.758 26.824 169.646 27.944C171.566 29.064 173.07 30.648 174.158 32.696C175.246 34.712 175.79 37.064 175.79 39.752C175.79 42.408 175.246 44.776 174.158 46.856C173.07 48.936 171.566 50.552 169.646 51.704C167.758 52.856 165.646 53.432 163.31 53.432C161.07 53.432 159.086 52.936 157.358 51.944C155.662 50.92 154.366 49.656 153.47 48.152V65.48H149.102V26.696H153.47V31.544ZM171.326 39.752C171.326 37.768 170.926 36.04 170.126 34.568C169.326 33.096 168.238 31.976 166.862 31.208C165.518 30.44 164.03 30.056 162.398 30.056C160.798 30.056 159.31 30.456 157.934 31.256C156.59 32.024 155.502 33.16 154.67 34.664C153.87 36.136 153.47 37.848 153.47 39.8C153.47 41.784 153.87 43.528 154.67 45.032C155.502 46.504 156.59 47.64 157.934 48.44C159.31 49.208 160.798 49.592 162.398 49.592C164.03 49.592 165.518 49.208 166.862 48.44C168.238 47.64 169.326 46.504 170.126 45.032C170.926 43.528 171.326 41.768 171.326 39.752ZM205.54 38.84C205.54 39.672 205.492 40.552 205.396 41.48H184.372C184.532 44.072 185.412 46.104 187.012 47.576C188.644 49.016 190.612 49.736 192.916 49.736C194.804 49.736 196.372 49.304 197.62 48.44C198.9 47.544 199.796 46.36 200.308 44.888H205.012C204.308 47.416 202.9 49.48 200.788 51.08C198.676 52.648 196.052 53.432 192.916 53.432C190.42 53.432 188.18 52.872 186.196 51.752C184.244 50.632 182.708 49.048 181.588 47C180.468 44.92 179.908 42.52 179.908 39.8C179.908 37.08 180.452 34.696 181.54 32.648C182.628 30.6 184.148 29.032 186.1 27.944C188.084 26.824 190.356 26.264 192.916 26.264C195.412 26.264 197.62 26.808 199.54 27.896C201.46 28.984 202.932 30.488 203.956 32.408C205.012 34.296 205.54 36.44 205.54 38.84ZM201.028 37.928C201.028 36.264 200.66 34.84 199.924 33.656C199.188 32.44 198.18 31.528 196.9 30.92C195.652 30.28 194.26 29.96 192.724 29.96C190.516 29.96 188.628 30.664 187.06 32.072C185.524 33.48 184.644 35.432 184.42 37.928H201.028ZM215.673 30.968C216.441 29.464 217.529 28.296 218.937 27.464C220.377 26.632 222.121 26.216 224.169 26.216V30.728H223.017C218.121 30.728 215.673 33.384 215.673 38.696V53H211.305V26.696H215.673V30.968ZM234.54 30.296V45.8C234.54 47.08 234.812 47.992 235.356 48.536C235.9 49.048 236.844 49.304 238.188 49.304H241.404V53H237.468C235.036 53 233.212 52.44 231.996 51.32C230.78 50.2 230.172 48.36 230.172 45.8V30.296H226.764V26.696H230.172V20.072H234.54V26.696H241.404V30.296H234.54ZM269.352 26.696L253.512 65.384H249L254.184 52.712L243.576 26.696H248.424L256.68 48.008L264.84 26.696H269.352Z" fill="#E74C3C"/>
</svg>
